<svg xmlns="http://www.w3.org/2000/svg" viewBox="0 0 385.38 385.38"><path d="M189.52 64.281c-81.628.029-147.776 66.225-147.747 147.853A147.84 147.84 0 0 0 47 251.041a52.44 52.44 0 0 1 31.24-18.92c-11.069-61.486 29.802-120.304 91.288-131.373a113.118 113.118 0 0 1 104.192 35.733 36.24 36.24 0 0 1 28-20.48 148.003 148.003 0 0 0-112.2-51.72z" fill="#ffed00"/><path d="M159.2 271.441c23.815.011 43.111 19.325 43.101 43.139-.011 23.799-19.301 43.09-43.101 43.101H33.72c-18.623 0-33.72-15.097-33.72-33.72s15.097-33.72 33.72-33.72H36c-3.965-28.719 16.101-55.215 44.82-59.18s55.215 16.101 59.18 44.82a42.924 42.924 0 0 1 19.2-4.44zm196.4-127.96c16.447 0 29.78 13.333 29.78 29.78s-13.333 29.78-29.78 29.78h-86.64c-12.857.005-23.284-10.413-23.29-23.27-.005-12.857 10.413-23.284 23.27-23.29h1.579a36.647 36.647 0 0 1-.28-4.6c.295-20.013 16.758-35.997 36.771-35.701 17.551.259 32.393 13.059 35.229 30.381a29.662 29.662 0 0 1 13.361-3.08z" fill="#50d1ef"/><path d="M41.76 212.081c.115-81.628 66.38-147.707 148.008-147.592a147.8 147.8 0 0 1 111.992 51.592c19.56-2.501 37.53 11.096 40.44 30.6a29.876 29.876 0 0 1 16.4-2.96C321.869 49.872 216.014 3.568 122.165 40.299S-17.988 182.885 18.742 276.734a182.623 182.623 0 0 0 6.458 14.587 33.688 33.688 0 0 1 8.52-1.08H36a52.821 52.821 0 0 1-.4-6.64 52.236 52.236 0 0 1 11.4-32.64 147.724 147.724 0 0 1-5.24-38.88z" fill="#f16730"/><path d="M189.52 98.921c-62.474.002-113.118 50.649-113.116 113.124 0 6.732.601 13.451 1.796 20.076a52.906 52.906 0 0 1 9.84-.92 51.994 51.994 0 0 1 26.96 7.44c-14.671-41.16 6.802-86.421 47.962-101.092 32.243-11.493 68.22-.948 89.158 26.132a23.199 23.199 0 0 1 16.84-7.2h1.56a36.647 36.647 0 0 1-.28-4.6 36.007 36.007 0 0 1 3.44-15.44 113.124 113.124 0 0 0-84.16-37.52z" fill="#45b549"/></svg>